<svg xmlns="http://www.w3.org/2000/svg" xmlns:xlink="http://www.w3.org/1999/xlink" id="Ebene_1" x="0px" y="0px" viewBox="0 0 16 16" xml:space="preserve">
  <g>
    <path d="M11.534,10.435c-0.749-0.749-1.967-0.749-2.715,0L8.78,10.473C7.624,9.484,6.514,8.374,5.527,7.22l0.038-0.039h0   c0.748-0.749,0.748-1.967,0-2.716L4.207,3.108c-0.725-0.725-1.991-0.725-2.716,0L0.746,3.853c-0.856,0.856-0.992,2.21-0.323,3.222   c2.214,3.347,5.154,6.287,8.502,8.502C9.355,15.861,9.847,16,10.336,16c0.662-0.001,1.319-0.254,1.81-0.747l0.746-0.745   c0.748-0.748,0.748-1.966,0-2.715L11.534,10.435z M11.987,13.603l-0.746,0.746c-0.426,0.428-1.104,0.494-1.609,0.161   c-3.206-2.12-6.021-4.935-8.141-8.141c-0.334-0.506-0.267-1.183,0.161-1.61l0.745-0.745c0.121-0.121,0.281-0.188,0.452-0.188   s0.332,0.067,0.453,0.188L4.66,5.371c0.249,0.249,0.249,0.656,0,0.906L4.208,6.729C3.975,6.962,3.957,7.333,4.165,7.587   c1.25,1.526,2.718,2.994,4.248,4.248c0.254,0.208,0.626,0.191,0.858-0.043l0.453-0.453c0.249-0.25,0.656-0.249,0.905,0l1.358,1.358   C12.236,12.947,12.237,13.353,11.987,13.603z"></path>
    <path d="M7.998,0c-0.353,0-0.64,0.287-0.64,0.64s0.287,0.64,0.64,0.64c3.706,0,6.721,3.015,6.721,6.721   c0,0.354,0.287,0.64,0.64,0.64c0.354,0,0.64-0.286,0.64-0.64C16,3.59,12.41,0,7.998,0z"></path>
    <path d="M7.998,3.841c2.294,0,4.161,1.867,4.161,4.161c0,0.354,0.287,0.64,0.64,0.64s0.64-0.286,0.64-0.64   c0-3-2.441-5.441-5.441-5.441c-0.353,0-0.64,0.287-0.64,0.64C7.358,3.555,7.645,3.841,7.998,3.841z"></path>
    <path d="M7.998,6.401c0.882,0,1.6,0.718,1.6,1.6c0,0.354,0.287,0.64,0.64,0.64c0.354,0,0.64-0.286,0.64-0.64   c0-1.588-1.292-2.881-2.881-2.881c-0.353,0-0.64,0.286-0.64,0.64S7.645,6.401,7.998,6.401z"></path>
  </g>
</svg>
