<svg xmlns="http://www.w3.org/2000/svg" xmlns:xlink="http://www.w3.org/1999/xlink" id="Ebene_1" x="0px" y="0px" viewBox="0 0 16 16" xml:space="preserve"><g>	<path d="M12.969,9.671c-0.001-0.001-0.002-0.002-0.002-0.004c-0.143-0.234-0.36-0.338-0.571-0.439l-0.102-0.049   c-0.013-0.006-1.267-0.625-1.533-0.721C10.228,8.266,9.815,8.384,9.528,8.81C9.451,8.926,9.23,9.193,9.044,9.41   C9.039,9.408,9.033,9.406,9.028,9.403C8.747,9.282,8.224,9.057,7.614,8.518C7.187,8.14,6.858,7.685,6.676,7.405   C6.961,7.1,7.082,6.882,7.197,6.652c0.106-0.207,0.19-0.541-0.014-0.948C7.14,5.613,6.955,5.166,6.784,4.754L6.538,4.161   C6.374,3.77,6.005,3.496,5.525,3.411C4.955,3.31,4.359,3.488,4.01,3.866C2.754,5.23,2.784,6.933,4.124,8.706   c1.107,1.628,2.497,2.829,3.915,3.383c1.303,0.509,1.912,0.651,2.323,0.651c0.174,0,0.312-0.026,0.453-0.059   c0.028-0.007,0.056-0.015,0.089-0.018c0.972-0.087,1.664-0.799,1.988-1.436C13.187,10.646,13.215,10.08,12.969,9.671z    M11.604,10.878c-0.107,0.141-0.401,0.472-0.815,0.509c-0.102,0.009-0.186,0.028-0.272,0.048c-0.137,0.034-0.394,0.094-2.012-0.539   c-1.18-0.461-2.36-1.494-3.323-2.911L5.116,7.892C3.729,6.06,4.649,5.062,4.95,4.735C5.005,4.676,5.187,4.65,5.292,4.65   c0.03,0,0.054,0.002,0.066,0.006l0.244,0.587c0.152,0.367,0.316,0.759,0.396,0.943c-0.06,0.112-0.144,0.237-0.357,0.448   C5.139,7.129,5.303,7.608,5.444,7.846c0.168,0.288,0.633,1.022,1.322,1.631C7.53,10.152,8.2,10.44,8.522,10.579   c0.045,0.019,0.082,0.035,0.11,0.048c0.637,0.317,1.044,0.007,1.23-0.205c0.018-0.02,0.358-0.409,0.589-0.707   c0.303,0.136,0.996,0.472,1.276,0.611l0.118,0.057c0.001,0,0.002,0.001,0.002,0.001C11.824,10.494,11.759,10.676,11.604,10.878z"></path>	<path d="M8,0.057C3.589,0.057,0,3.62,0,8c0,1.572,0.459,3.081,1.332,4.383l-0.815,2.406c-0.078,0.229-0.02,0.481,0.149,0.654   c0.169,0.173,0.423,0.234,0.651,0.162l2.545-0.809c1.247,0.752,2.672,1.148,4.138,1.148C12.412,15.943,16,12.38,16,8   S12.411,0.057,8,0.057z M8.001,14.663c-1.32,0-2.599-0.381-3.698-1.102c-0.106-0.069-0.228-0.105-0.351-0.105   c-0.065,0-0.13,0.01-0.194,0.03l-1.622,0.516l0.513-1.514c0.067-0.197,0.033-0.416-0.09-0.584C1.722,10.761,1.28,9.411,1.28,8   c0-3.674,3.015-6.662,6.72-6.662S14.72,4.326,14.72,8S11.706,14.663,8.001,14.663z"></path></g></svg>