<svg xmlns="http://www.w3.org/2000/svg" xmlns:xlink="http://www.w3.org/1999/xlink" id="Ebene_1" x="0px" y="0px" viewBox="0 0 16 16" xml:space="preserve"><path d="M14.309,2.453H1.692C0.759,2.453,0,3.212,0,4.145v7.711c0,0.932,0.759,1.691,1.692,1.691h12.617  c0.932,0,1.691-0.759,1.691-1.691V4.145C16,3.212,15.241,2.453,14.309,2.453z M13.623,3.733L8,8.232L2.378,3.733H13.623z   M14.309,12.267H1.692c-0.227,0-0.412-0.184-0.412-0.411V4.495L7.6,9.552c0.117,0.093,0.258,0.14,0.4,0.14s0.283-0.047,0.4-0.14  l6.32-5.057v7.36C14.72,12.082,14.536,12.267,14.309,12.267z"></path></svg>